<?xml version="1.0" encoding="UTF-8" standalone="no"?>
<svg
   xmlns:dc="http://purl.org/dc/elements/1.1/"
   xmlns:cc="http://creativecommons.org/ns#"
   xmlns:rdf="http://www.w3.org/1999/02/22-rdf-syntax-ns#"
   xmlns:svg="http://www.w3.org/2000/svg"
   xmlns="http://www.w3.org/2000/svg"
   xmlns:sodipodi="http://sodipodi.sourceforge.net/DTD/sodipodi-0.dtd"
   xmlns:inkscape="http://www.inkscape.org/namespaces/inkscape"
   version="1.1"
   viewBox="0 0 914.48464 205.6689"
   stroke-miterlimit="10"
   id="svg4514"
   sodipodi:docname="bizaligned.svg"
   inkscape:version="0.92.1 r15371"
   width="914.48462"
   height="205.6689"
   style="fill:none;stroke:none;stroke-linecap:square;stroke-miterlimit:10">
  <metadata
     id="metadata4520">
    <rdf:RDF>
      <cc:Work
         rdf:about="">
        <dc:format>image/svg+xml</dc:format>
        <dc:type
           rdf:resource="http://purl.org/dc/dcmitype/StillImage" />
        <dc:title></dc:title>
      </cc:Work>
    </rdf:RDF>
  </metadata>
  <defs
     id="defs4518" />
  <sodipodi:namedview
     pagecolor="#ffffff"
     bordercolor="#666666"
     borderopacity="1"
     objecttolerance="10"
     gridtolerance="10"
     guidetolerance="10"
     inkscape:pageopacity="0"
     inkscape:pageshadow="2"
     inkscape:window-width="1920"
     inkscape:window-height="1017"
     id="namedview4516"
     showgrid="false"
     inkscape:zoom="1.1777778"
     inkscape:cx="452.02382"
     inkscape:cy="159.867"
     inkscape:window-x="1912"
     inkscape:window-y="-8"
     inkscape:window-maximized="1"
     inkscape:current-layer="layer2"
     fit-margin-top="0"
     fit-margin-left="0"
     fit-margin-right="0"
     fit-margin-bottom="0" />
  <clipPath
     id="p.0">
    <path
       d="M 0,0 H 960 V 720 H 0 Z"
       id="path4485"
       inkscape:connector-curvature="0"
       style="clip-rule:nonzero" />
  </clipPath>
  <path
     style="fill:#000000;fill-opacity:0;fill-rule:evenodd"
     inkscape:connector-curvature="0"
     id="path4488"
     d="M -27.976183,-314.19811 H 932.02379 v 720 H -27.976183 Z" />
  <path
     style="fill:#000000;fill-opacity:0;fill-rule:evenodd"
     inkscape:connector-curvature="0"
     id="path4506"
     d="M 298.99764,-87.710118 H 660.0685 V 0.00642221 H 298.99764 Z" />
  <path
     style="fill:#000000;fill-opacity:0;fill-rule:evenodd"
     inkscape:connector-curvature="0"
     id="path4510"
     d="m -281.29901,-60.255848 h 144 v 48 h -144 z" />
  <g
     inkscape:groupmode="layer"
     id="layer2"
     inkscape:label="Layer 2"
     style="display:inline"
     transform="translate(-27.976183,-314.19811)">
    <g
       id="g4543"
       transform="matrix(1.8965662,0,0,1.8965662,-228.02915,-41.026238)"
       inkscape:export-xdpi="190.728"
       inkscape:export-ydpi="190.728">
      <path
         d="m 191.8413,187.29868 22.99213,24.18898 -24.28347,22.89764 -22.99212,-24.18898 z"
         id="path4490"
         inkscape:connector-curvature="0"
         style="fill:#f99043;fill-rule:evenodd" />
      <path
         d="m 191.8413,248.65483 22.99213,24.18898 -24.28347,22.89764 -22.99212,-24.18899 z"
         id="path4492"
         inkscape:connector-curvature="0"
         style="fill:#d9d9d9;fill-rule:evenodd" />
      <path
         d="m 221.66365,219.47273 22.99213,24.18898 -24.28347,22.89764 -22.99212,-24.18899 z"
         id="path4494"
         inkscape:connector-curvature="0"
         style="fill:#073763;fill-rule:evenodd" />
      <path
         d="m 143.61351,222.62762 32.28348,8.59842 -8.62993,32.1575 -32.28346,-8.59843 z"
         id="path4496"
         inkscape:connector-curvature="0"
         style="fill:#cfe2f3;fill-rule:evenodd" />
      <path
         d="m 236.65578,204.97113 h 123.65355 v 48 H 236.65578 Z"
         id="path4498"
         inkscape:connector-curvature="0"
         style="fill:#000000;fill-opacity:0;fill-rule:evenodd" />
      <path
         d="m 258.2638,251.91113 v -45.8125 h 8.78125 v 16.5 q 4.0625,-4.625 9.625,-4.625 6.0625,0 10.03125,4.39063 3.96875,4.39062 3.96875,12.60937 0,8.5 -4.04688,13.09375 -4.04687,4.59375 -9.82812,4.59375 -2.84375,0 -5.60938,-1.42187 -2.76562,-1.42188 -4.76562,-4.20313 v 4.875 z m 8.71875,-17.3125 q 0,5.15625 1.625,7.625 2.28125,3.5 6.0625,3.5 2.90625,0 4.95312,-2.48437 2.04688,-2.48438 2.04688,-7.82813 0,-5.6875 -2.0625,-8.20312 -2.0625,-2.51563 -5.28125,-2.51563 -3.15625,0 -5.25,2.45313 -2.09375,2.45312 -2.09375,7.45312 z m 30.75,-20.375 v -8.125 h 8.78125 v 8.125 z m 0,37.6875 v -33.1875 h 8.78125 v 33.1875 z m 14.25,0 v -6.84375 l 12.4375,-14.28125 q 3.0625,-3.5 4.53125,-4.96875 -1.53125,0.0937 -4.03125,0.125 l -11.71875,0.0625 v -7.28125 h 27.4375 v 6.21875 l -12.6875,14.625 -4.46875,4.84375 q 3.65625,-0.21875 4.53125,-0.21875 h 13.59375 v 7.71875 z"
         id="path4500"
         inkscape:connector-curvature="0"
         style="fill:#073763;fill-rule:nonzero" />
      <path
         d="m 282.70602,204.97113 h 334.4567 v 48 h -334.4567 z"
         id="path4502"
         inkscape:connector-curvature="0"
         style="fill:#000000;fill-opacity:0;fill-rule:evenodd" />
      <path
         d="m 372.60626,247.81738 q -3.125,2.65625 -6.01562,3.75 -2.89063,1.09375 -6.20313,1.09375 -5.46875,0 -8.40625,-2.67187 -2.9375,-2.67188 -2.9375,-6.82813 0,-2.4375 1.10938,-4.45312 1.10937,-2.01563 2.90625,-3.23438 1.79687,-1.21875 4.04687,-1.84375 1.65625,-0.4375 5,-0.84375 6.8125,-0.8125 10.03125,-1.9375 0.0312,-1.15625 0.0312,-1.46875 0,-3.4375 -1.59375,-4.84375 -2.15625,-1.90625 -6.40625,-1.90625 -3.96875,0 -5.85937,1.39063 -1.89063,1.39062 -2.79688,4.92187 l -5.5,-0.75 q 0.75,-3.53125 2.46875,-5.70312 1.71875,-2.17188 4.96875,-3.34375 3.25,-1.17188 7.53125,-1.17188 4.25,0 6.90625,1 2.65625,1 3.90625,2.51563 1.25,1.51562 1.75,3.82812 0.28125,1.4375 0.28125,5.1875 v 7.5 q 0,7.84375 0.35938,9.92188 0.35937,2.07812 1.42187,3.98437 h -5.875 q -0.875,-1.75 -1.125,-4.09375 z m -0.46875,-12.5625 q -3.0625,1.25 -9.1875,2.125 -3.46875,0.5 -4.90625,1.125 -1.4375,0.625 -2.21875,1.82813 -0.78125,1.20312 -0.78125,2.67187 0,2.25 1.70313,3.75 1.70312,1.5 4.98437,1.5 3.25,0 5.78125,-1.42187 2.53125,-1.42188 3.71875,-3.89063 0.90625,-1.90625 0.90625,-5.625 z m 14.28125,16.65625 v -45.8125 h 5.625 v 45.8125 z m 14.375,-39.34375 v -6.46875 h 5.625 v 6.46875 z m 0,39.34375 v -33.1875 h 5.625 v 33.1875 z m 13.15625,2.75 5.46875,0.8125 q 0.34375,2.53125 1.90625,3.6875 2.09375,1.5625 5.71875,1.5625 3.90625,0 6.03125,-1.5625 2.125,-1.5625 2.875,-4.375 0.4375,-1.71875 0.40625,-7.21875 -3.6875,4.34375 -9.1875,4.34375 -6.84375,0 -10.59375,-4.9375 -3.75,-4.9375 -3.75,-11.84375 0,-4.75 1.71875,-8.76562 1.71875,-4.01563 4.98438,-6.20313 3.26562,-2.1875 7.67187,-2.1875 5.875,0 9.6875,4.75 v -4 h 5.1875 v 28.6875 q 0,7.75 -1.57812,10.98438 -1.57813,3.23437 -5,5.10937 -3.42188,1.875 -8.42188,1.875 -5.9375,0 -9.59375,-2.67187 -3.65625,-2.67188 -3.53125,-8.04688 z m 4.65625,-19.9375 q 0,6.53125 2.59375,9.53125 2.59375,3 6.5,3 3.875,0 6.5,-2.98437 2.625,-2.98438 2.625,-9.35938 0,-6.09375 -2.70312,-9.1875 -2.70313,-3.09375 -6.51563,-3.09375 -3.75,0 -6.375,3.04688 -2.625,3.04687 -2.625,9.04687 z m 31.96875,17.1875 v -33.1875 h 5.0625 v 4.71875 q 3.65625,-5.46875 10.5625,-5.46875 3,0 5.51563,1.07813 2.51562,1.07812 3.76562,2.82812 1.25,1.75 1.75,4.15625 0.3125,1.5625 0.3125,5.46875 v 20.40625 h -5.625 v -20.1875 q 0,-3.4375 -0.65625,-5.14062 -0.65625,-1.70313 -2.32812,-2.71875 -1.67188,-1.01563 -3.92188,-1.01563 -3.59375,0 -6.20312,2.28125 -2.60938,2.28125 -2.60938,8.65625 v 18.125 z m 58.3125,-10.6875 5.8125,0.71875 q -1.375,5.09375 -5.09375,7.90625 -3.71875,2.8125 -9.5,2.8125 -7.28125,0 -11.54687,-4.48437 -4.26563,-4.48438 -4.26563,-12.57813 0,-8.375 4.3125,-13 4.3125,-4.625 11.1875,-4.625 6.65625,0 10.875,4.53125 4.21875,4.53125 4.21875,12.75 0,0.5 -0.0312,1.5 h -24.75 q 0.3125,5.46875 3.09375,8.375 2.78125,2.90625 6.9375,2.90625 3.09375,0 5.28125,-1.625 2.1875,-1.625 3.46875,-5.1875 z m -18.46875,-9.09375 h 18.53125 q -0.375,-4.1875 -2.125,-6.28125 -2.6875,-3.25 -6.96875,-3.25 -3.875,0 -6.51562,2.59375 -2.64063,2.59375 -2.92188,6.9375 z m 52.875,19.78125 v -4.1875 q -3.15625,4.9375 -9.28125,4.9375 -3.96875,0 -7.29687,-2.1875 -3.32813,-2.1875 -5.15625,-6.10937 -1.82813,-3.92188 -1.82813,-9.01563 0,-4.96875 1.65625,-9.01562 1.65625,-4.04688 4.96875,-6.20313 3.3125,-2.15625 7.40625,-2.15625 3,0 5.34375,1.26563 2.34375,1.26562 3.8125,3.29687 v -16.4375 h 5.59375 v 45.8125 z m -17.78125,-16.5625 q 0,6.375 2.6875,9.53125 2.6875,3.15625 6.34375,3.15625 3.6875,0 6.26563,-3.01562 2.57812,-3.01563 2.57812,-9.20313 0,-6.8125 -2.625,-10 -2.625,-3.1875 -6.46875,-3.1875 -3.75,0 -6.26562,3.0625 -2.51563,3.0625 -2.51563,9.65625 z"
         id="path4504"
         inkscape:connector-curvature="0"
         style="fill:#f99043;fill-rule:nonzero" />
      <path
         d="m 445.34518,277.11313 2.78125,-0.4375 q 0.23438,1.67187 1.29688,2.5625 1.07812,0.89062 3,0.89062 1.9375,0 2.875,-0.78125 0.9375,-0.79687 0.9375,-1.85937 0,-0.95313 -0.82813,-1.5 -0.57812,-0.375 -2.875,-0.95313 -3.09375,-0.78125 -4.29687,-1.34375 -1.1875,-0.57812 -1.8125,-1.57812 -0.60938,-1.01563 -0.60938,-2.23438 0,-1.10937 0.5,-2.04687 0.51563,-0.95313 1.39063,-1.57813 0.65625,-0.48437 1.78125,-0.8125 1.14062,-0.34375 2.4375,-0.34375 1.95312,0 3.42187,0.5625 1.48438,0.5625 2.1875,1.53125 0.70313,0.95313 0.96875,2.5625 l -2.75,0.375 q -0.1875,-1.28125 -1.09375,-2 -0.89062,-0.71875 -2.53125,-0.71875 -1.9375,0 -2.76562,0.64063 -0.82813,0.64062 -0.82813,1.5 0,0.54687 0.34375,0.98437 0.34375,0.45313 1.07813,0.75 0.42187,0.15625 2.48437,0.71875 2.98438,0.79688 4.15625,1.3125 1.1875,0.5 1.85938,1.46875 0.67187,0.96875 0.67187,2.40625 0,1.40625 -0.82812,2.65625 -0.8125,1.23438 -2.35938,1.92188 -1.54687,0.67187 -3.5,0.67187 -3.23437,0 -4.9375,-1.34375 -1.6875,-1.34375 -2.15625,-3.98437 z m 16.07813,-3.34375 q 0,-4.60938 2.5625,-6.82813 2.14062,-1.84375 5.21875,-1.84375 3.42187,0 5.59375,2.25 2.17187,2.23438 2.17187,6.1875 0,3.20313 -0.96875,5.04688 -0.95312,1.82812 -2.79687,2.84375 -1.82813,1.01562 -4,1.01562 -3.48438,0 -5.64063,-2.23437 -2.14062,-2.23438 -2.14062,-6.4375 z m 2.89062,0 q 0,3.1875 1.39063,4.78125 1.39062,1.57812 3.5,1.57812 2.09375,0 3.48437,-1.59375 1.39063,-1.59375 1.39063,-4.85937 0,-3.07813 -1.40625,-4.65625 -1.39063,-1.59375 -3.46875,-1.59375 -2.10938,0 -3.5,1.57812 -1.39063,1.57813 -1.39063,4.76563 z m 15.89063,8.29687 V 259.16 h 2.8125 v 22.90625 z m 18.04687,0 v -2.4375 q -1.9375,2.8125 -5.26562,2.8125 -1.46875,0 -2.75,-0.5625 -1.26563,-0.5625 -1.89063,-1.40625 -0.60937,-0.85937 -0.85937,-2.09375 -0.17188,-0.82812 -0.17188,-2.625 V 265.4725 h 2.8125 v 9.20313 q 0,2.20312 0.17188,2.96875 0.26562,1.10937 1.125,1.75 0.85937,0.625 2.125,0.625 1.26562,0 2.375,-0.64063 1.10937,-0.65625 1.5625,-1.76562 0.46875,-1.125 0.46875,-3.25 v -8.89063 h 2.8125 v 16.59375 z m 13.0625,-2.51562 0.40625,2.48437 q -1.1875,0.25 -2.125,0.25 -1.53125,0 -2.375,-0.48437 -0.84375,-0.48438 -1.1875,-1.26563 -0.34375,-0.79687 -0.34375,-3.32812 V 267.66 h -2.0625 v -2.1875 h 2.0625 v -4.10937 l 2.79688,-1.6875 v 5.79687 h 2.82812 v 2.1875 h -2.82812 v 9.70313 q 0,1.20312 0.14062,1.54687 0.15625,0.34375 0.48438,0.54688 0.34375,0.20312 0.96875,0.20312 0.46875,0 1.23437,-0.10937 z m 2.76559,-17.15625 V 259.16 h 2.8125 v 3.23438 z m 0,19.67187 V 265.4725 h 2.8125 v 16.59375 z m 6.04688,-8.29687 q 0,-4.60938 2.5625,-6.82813 2.14062,-1.84375 5.21875,-1.84375 3.42187,0 5.59375,2.25 2.17187,2.23438 2.17187,6.1875 0,3.20313 -0.96875,5.04688 -0.95312,1.82812 -2.79687,2.84375 -1.82813,1.01562 -4,1.01562 -3.48438,0 -5.64063,-2.23437 -2.14062,-2.23438 -2.14062,-6.4375 z m 2.89062,0 q 0,3.1875 1.39063,4.78125 1.39062,1.57812 3.5,1.57812 2.09375,0 3.48437,-1.59375 1.39063,-1.59375 1.39063,-4.85937 0,-3.07813 -1.40625,-4.65625 -1.39063,-1.59375 -3.46875,-1.59375 -2.10938,0 -3.5,1.57812 -1.39063,1.57813 -1.39063,4.76563 z m 15.95313,8.29687 V 265.4725 h 2.53125 v 2.35938 q 1.82812,-2.73438 5.28125,-2.73438 1.5,0 2.75,0.54688 1.26562,0.53125 1.89062,1.40625 0.625,0.875 0.875,2.07812 0.15625,0.78125 0.15625,2.73438 v 10.20312 h -2.8125 V 271.9725 q 0,-1.71875 -0.32812,-2.5625 -0.32813,-0.85937 -1.17188,-1.35937 -0.82812,-0.51563 -1.95312,-0.51563 -1.79688,0 -3.10938,1.14063 -1.29687,1.14062 -1.29687,4.32812 v 9.0625 z m 16.67187,-4.95312 2.78125,-0.4375 q 0.23438,1.67187 1.29688,2.5625 1.07812,0.89062 3,0.89062 1.9375,0 2.875,-0.78125 0.9375,-0.79687 0.9375,-1.85937 0,-0.95313 -0.82813,-1.5 -0.57812,-0.375 -2.875,-0.95313 -3.09375,-0.78125 -4.29687,-1.34375 -1.1875,-0.57812 -1.8125,-1.57812 -0.60938,-1.01563 -0.60938,-2.23438 0,-1.10937 0.5,-2.04687 0.51563,-0.95313 1.39063,-1.57813 0.65625,-0.48437 1.78125,-0.8125 1.14062,-0.34375 2.4375,-0.34375 1.95312,0 3.42187,0.5625 1.48438,0.5625 2.1875,1.53125 0.70313,0.95313 0.96875,2.5625 l -2.75,0.375 q -0.1875,-1.28125 -1.09375,-2 -0.89062,-0.71875 -2.53125,-0.71875 -1.9375,0 -2.76562,0.64063 -0.82813,0.64062 -0.82813,1.5 0,0.54687 0.34375,0.98437 0.34375,0.45313 1.07813,0.75 0.42187,0.15625 2.48437,0.71875 2.98438,0.79688 4.15625,1.3125 1.1875,0.5 1.85938,1.46875 0.67187,0.96875 0.67187,2.40625 0,1.40625 -0.82812,2.65625 -0.8125,1.23438 -2.35938,1.92188 -1.54687,0.67187 -3.5,0.67187 -3.23437,0 -4.9375,-1.34375 -1.6875,-1.34375 -2.15625,-3.98437 z"
         id="path4508"
         inkscape:connector-curvature="0"
         style="fill:#073763;fill-rule:nonzero" />
    </g>
  </g>
</svg>
